<mxfile host="Electron" agent="Mozilla/5.0 (Windows NT 10.0; Win64; x64) AppleWebKit/537.36 (KHTML, like Gecko) draw.io/27.0.2 Chrome/134.0.6998.205 Electron/35.3.0 Safari/537.36" version="27.0.2">
  <diagram name="Page-1" id="KEPbNXPQMUhquJ5FJpKU">
    <mxGraphModel dx="1138" dy="1391" grid="1" gridSize="10" guides="1" tooltips="1" connect="1" arrows="1" fold="1" page="1" pageScale="1" pageWidth="827" pageHeight="1169" math="0" shadow="0">
      <root>
        <mxCell id="0" />
        <mxCell id="1" parent="0" />
        <mxCell id="V150j_d9E5NmkJhplCFc-5" style="edgeStyle=orthogonalEdgeStyle;rounded=0;orthogonalLoop=1;jettySize=auto;html=1;exitX=0.5;exitY=1;exitDx=0;exitDy=0;entryX=0.5;entryY=0;entryDx=0;entryDy=0;" edge="1" parent="1" source="V150j_d9E5NmkJhplCFc-1" target="V150j_d9E5NmkJhplCFc-2">
          <mxGeometry relative="1" as="geometry" />
        </mxCell>
        <mxCell id="V150j_d9E5NmkJhplCFc-1" value="" style="ellipse;fillColor=strokeColor;html=1;" vertex="1" parent="1">
          <mxGeometry x="414" y="20" width="30" height="30" as="geometry" />
        </mxCell>
        <mxCell id="V150j_d9E5NmkJhplCFc-7" style="edgeStyle=orthogonalEdgeStyle;rounded=0;orthogonalLoop=1;jettySize=auto;html=1;exitX=0.5;exitY=1;exitDx=0;exitDy=0;entryX=0.5;entryY=0;entryDx=0;entryDy=0;" edge="1" parent="1" source="V150j_d9E5NmkJhplCFc-2" target="V150j_d9E5NmkJhplCFc-3">
          <mxGeometry relative="1" as="geometry" />
        </mxCell>
        <mxCell id="V150j_d9E5NmkJhplCFc-8" value="Access Account" style="edgeLabel;html=1;align=center;verticalAlign=middle;resizable=0;points=[];" vertex="1" connectable="0" parent="V150j_d9E5NmkJhplCFc-7">
          <mxGeometry x="-0.2539" y="2" relative="1" as="geometry">
            <mxPoint y="1" as="offset" />
          </mxGeometry>
        </mxCell>
        <mxCell id="V150j_d9E5NmkJhplCFc-2" value="Request Received" style="html=1;align=center;verticalAlign=top;rounded=1;absoluteArcSize=1;arcSize=10;dashed=0;whiteSpace=wrap;" vertex="1" parent="1">
          <mxGeometry x="373.5" y="120" width="111" height="30" as="geometry" />
        </mxCell>
        <mxCell id="V150j_d9E5NmkJhplCFc-3" value="Account Review" style="html=1;align=center;verticalAlign=top;rounded=1;absoluteArcSize=1;arcSize=10;dashed=0;whiteSpace=wrap;" vertex="1" parent="1">
          <mxGeometry x="374.5" y="210" width="110" height="30" as="geometry" />
        </mxCell>
        <mxCell id="V150j_d9E5NmkJhplCFc-12" style="edgeStyle=orthogonalEdgeStyle;rounded=0;orthogonalLoop=1;jettySize=auto;html=1;exitX=0.5;exitY=1;exitDx=0;exitDy=0;entryX=0.5;entryY=0;entryDx=0;entryDy=0;" edge="1" parent="1" source="V150j_d9E5NmkJhplCFc-4" target="V150j_d9E5NmkJhplCFc-11">
          <mxGeometry relative="1" as="geometry" />
        </mxCell>
        <mxCell id="V150j_d9E5NmkJhplCFc-13" value="Verify Documents" style="edgeLabel;html=1;align=center;verticalAlign=middle;resizable=0;points=[];" vertex="1" connectable="0" parent="V150j_d9E5NmkJhplCFc-12">
          <mxGeometry x="-0.2825" y="-3" relative="1" as="geometry">
            <mxPoint as="offset" />
          </mxGeometry>
        </mxCell>
        <mxCell id="V150j_d9E5NmkJhplCFc-4" value="Documentation Review" style="html=1;align=center;verticalAlign=top;rounded=1;absoluteArcSize=1;arcSize=10;dashed=0;whiteSpace=wrap;" vertex="1" parent="1">
          <mxGeometry x="373.5" y="300" width="130" height="30" as="geometry" />
        </mxCell>
        <mxCell id="V150j_d9E5NmkJhplCFc-9" style="edgeStyle=orthogonalEdgeStyle;rounded=0;orthogonalLoop=1;jettySize=auto;html=1;exitX=0.5;exitY=1;exitDx=0;exitDy=0;entryX=0.424;entryY=-0.121;entryDx=0;entryDy=0;entryPerimeter=0;" edge="1" parent="1" source="V150j_d9E5NmkJhplCFc-3" target="V150j_d9E5NmkJhplCFc-4">
          <mxGeometry relative="1" as="geometry" />
        </mxCell>
        <mxCell id="V150j_d9E5NmkJhplCFc-10" value="Check Purchase History" style="edgeLabel;html=1;align=center;verticalAlign=middle;resizable=0;points=[];" vertex="1" connectable="0" parent="V150j_d9E5NmkJhplCFc-9">
          <mxGeometry x="-0.1937" y="2" relative="1" as="geometry">
            <mxPoint as="offset" />
          </mxGeometry>
        </mxCell>
        <mxCell id="V150j_d9E5NmkJhplCFc-11" value="Evaluation" style="rhombus;" vertex="1" parent="1">
          <mxGeometry x="395.5" y="390" width="86" height="80" as="geometry" />
        </mxCell>
        <mxCell id="V150j_d9E5NmkJhplCFc-17" style="edgeStyle=orthogonalEdgeStyle;rounded=0;orthogonalLoop=1;jettySize=auto;html=1;exitX=0.5;exitY=1;exitDx=0;exitDy=0;entryX=1;entryY=0.5;entryDx=0;entryDy=0;" edge="1" parent="1" source="V150j_d9E5NmkJhplCFc-14" target="V150j_d9E5NmkJhplCFc-16">
          <mxGeometry relative="1" as="geometry" />
        </mxCell>
        <mxCell id="V150j_d9E5NmkJhplCFc-19" value="Decision Returned" style="edgeLabel;html=1;align=center;verticalAlign=middle;resizable=0;points=[];" vertex="1" connectable="0" parent="V150j_d9E5NmkJhplCFc-17">
          <mxGeometry x="-0.4268" y="-1" relative="1" as="geometry">
            <mxPoint as="offset" />
          </mxGeometry>
        </mxCell>
        <mxCell id="V150j_d9E5NmkJhplCFc-14" value="Escalation" style="html=1;align=center;verticalAlign=top;rounded=1;absoluteArcSize=1;arcSize=10;dashed=0;whiteSpace=wrap;" vertex="1" parent="1">
          <mxGeometry x="570" y="490" width="90" height="30" as="geometry" />
        </mxCell>
        <mxCell id="V150j_d9E5NmkJhplCFc-15" style="edgeStyle=orthogonalEdgeStyle;rounded=0;orthogonalLoop=1;jettySize=auto;html=1;exitX=1;exitY=1;exitDx=0;exitDy=0;entryX=0.121;entryY=-0.083;entryDx=0;entryDy=0;entryPerimeter=0;" edge="1" parent="1" source="V150j_d9E5NmkJhplCFc-11" target="V150j_d9E5NmkJhplCFc-14">
          <mxGeometry relative="1" as="geometry" />
        </mxCell>
        <mxCell id="V150j_d9E5NmkJhplCFc-18" value="Needs Supervisor" style="edgeLabel;html=1;align=center;verticalAlign=middle;resizable=0;points=[];" vertex="1" connectable="0" parent="V150j_d9E5NmkJhplCFc-15">
          <mxGeometry x="-0.2056" relative="1" as="geometry">
            <mxPoint as="offset" />
          </mxGeometry>
        </mxCell>
        <mxCell id="V150j_d9E5NmkJhplCFc-33" style="edgeStyle=orthogonalEdgeStyle;rounded=0;orthogonalLoop=1;jettySize=auto;html=1;exitX=0.5;exitY=1;exitDx=0;exitDy=0;entryX=1;entryY=0.5;entryDx=0;entryDy=0;" edge="1" parent="1" source="V150j_d9E5NmkJhplCFc-16" target="V150j_d9E5NmkJhplCFc-27">
          <mxGeometry relative="1" as="geometry" />
        </mxCell>
        <mxCell id="V150j_d9E5NmkJhplCFc-34" value="Credit Issued" style="edgeLabel;html=1;align=center;verticalAlign=middle;resizable=0;points=[];" vertex="1" connectable="0" parent="V150j_d9E5NmkJhplCFc-33">
          <mxGeometry x="-0.402" y="2" relative="1" as="geometry">
            <mxPoint as="offset" />
          </mxGeometry>
        </mxCell>
        <mxCell id="V150j_d9E5NmkJhplCFc-16" value="Alternative Offer" style="html=1;align=center;verticalAlign=top;rounded=1;absoluteArcSize=1;arcSize=10;dashed=0;whiteSpace=wrap;" vertex="1" parent="1">
          <mxGeometry x="470" y="580" width="110" height="30" as="geometry" />
        </mxCell>
        <mxCell id="V150j_d9E5NmkJhplCFc-20" value="Payment Processing" style="html=1;align=center;verticalAlign=top;rounded=1;absoluteArcSize=1;arcSize=10;dashed=0;whiteSpace=wrap;" vertex="1" parent="1">
          <mxGeometry x="280" y="530" width="120" height="30" as="geometry" />
        </mxCell>
        <mxCell id="V150j_d9E5NmkJhplCFc-21" style="edgeStyle=orthogonalEdgeStyle;rounded=0;orthogonalLoop=1;jettySize=auto;html=1;exitX=0;exitY=1;exitDx=0;exitDy=0;entryX=0.396;entryY=-0.012;entryDx=0;entryDy=0;entryPerimeter=0;" edge="1" parent="1" source="V150j_d9E5NmkJhplCFc-11" target="V150j_d9E5NmkJhplCFc-20">
          <mxGeometry relative="1" as="geometry" />
        </mxCell>
        <mxCell id="V150j_d9E5NmkJhplCFc-23" value="Approve Refund" style="edgeLabel;html=1;align=center;verticalAlign=middle;resizable=0;points=[];" vertex="1" connectable="0" parent="V150j_d9E5NmkJhplCFc-21">
          <mxGeometry x="0.3812" y="-1" relative="1" as="geometry">
            <mxPoint as="offset" />
          </mxGeometry>
        </mxCell>
        <mxCell id="V150j_d9E5NmkJhplCFc-22" style="edgeStyle=orthogonalEdgeStyle;rounded=0;orthogonalLoop=1;jettySize=auto;html=1;exitX=0.5;exitY=1;exitDx=0;exitDy=0;entryX=0.167;entryY=0.033;entryDx=0;entryDy=0;entryPerimeter=0;" edge="1" parent="1" source="V150j_d9E5NmkJhplCFc-11" target="V150j_d9E5NmkJhplCFc-16">
          <mxGeometry relative="1" as="geometry" />
        </mxCell>
        <mxCell id="V150j_d9E5NmkJhplCFc-24" value="Offer Alternative" style="edgeLabel;html=1;align=center;verticalAlign=middle;resizable=0;points=[];" vertex="1" connectable="0" parent="V150j_d9E5NmkJhplCFc-22">
          <mxGeometry x="0.1443" y="3" relative="1" as="geometry">
            <mxPoint as="offset" />
          </mxGeometry>
        </mxCell>
        <mxCell id="V150j_d9E5NmkJhplCFc-25" value="Documentation" style="html=1;align=center;verticalAlign=top;rounded=1;absoluteArcSize=1;arcSize=10;dashed=0;whiteSpace=wrap;" vertex="1" parent="1">
          <mxGeometry x="220" y="640" width="110" height="30" as="geometry" />
        </mxCell>
        <mxCell id="V150j_d9E5NmkJhplCFc-26" style="edgeStyle=orthogonalEdgeStyle;rounded=0;orthogonalLoop=1;jettySize=auto;html=1;exitX=0.5;exitY=1;exitDx=0;exitDy=0;entryX=0.57;entryY=-0.086;entryDx=0;entryDy=0;entryPerimeter=0;" edge="1" parent="1" source="V150j_d9E5NmkJhplCFc-20" target="V150j_d9E5NmkJhplCFc-25">
          <mxGeometry relative="1" as="geometry" />
        </mxCell>
        <mxCell id="V150j_d9E5NmkJhplCFc-30" value="Process Payment" style="edgeLabel;html=1;align=center;verticalAlign=middle;resizable=0;points=[];" vertex="1" connectable="0" parent="V150j_d9E5NmkJhplCFc-26">
          <mxGeometry x="-0.1597" y="2" relative="1" as="geometry">
            <mxPoint as="offset" />
          </mxGeometry>
        </mxCell>
        <mxCell id="V150j_d9E5NmkJhplCFc-29" style="edgeStyle=orthogonalEdgeStyle;rounded=0;orthogonalLoop=1;jettySize=auto;html=1;exitX=0.5;exitY=1;exitDx=0;exitDy=0;entryX=0.5;entryY=0;entryDx=0;entryDy=0;" edge="1" parent="1" source="V150j_d9E5NmkJhplCFc-27" target="V150j_d9E5NmkJhplCFc-28">
          <mxGeometry relative="1" as="geometry" />
        </mxCell>
        <mxCell id="V150j_d9E5NmkJhplCFc-35" value="Notify Passenger" style="edgeLabel;html=1;align=center;verticalAlign=middle;resizable=0;points=[];" vertex="1" connectable="0" parent="V150j_d9E5NmkJhplCFc-29">
          <mxGeometry x="-0.0126" relative="1" as="geometry">
            <mxPoint as="offset" />
          </mxGeometry>
        </mxCell>
        <mxCell id="V150j_d9E5NmkJhplCFc-27" value="Notification" style="html=1;align=center;verticalAlign=top;rounded=1;absoluteArcSize=1;arcSize=10;dashed=0;whiteSpace=wrap;" vertex="1" parent="1">
          <mxGeometry x="390" y="700" width="80" height="30" as="geometry" />
        </mxCell>
        <mxCell id="V150j_d9E5NmkJhplCFc-28" value="" style="ellipse;html=1;shape=endState;fillColor=strokeColor;" vertex="1" parent="1">
          <mxGeometry x="415" y="780" width="30" height="30" as="geometry" />
        </mxCell>
        <mxCell id="V150j_d9E5NmkJhplCFc-31" style="edgeStyle=orthogonalEdgeStyle;rounded=0;orthogonalLoop=1;jettySize=auto;html=1;exitX=1;exitY=0.5;exitDx=0;exitDy=0;entryX=0.609;entryY=-0.065;entryDx=0;entryDy=0;entryPerimeter=0;" edge="1" parent="1" source="V150j_d9E5NmkJhplCFc-25" target="V150j_d9E5NmkJhplCFc-27">
          <mxGeometry relative="1" as="geometry" />
        </mxCell>
        <mxCell id="V150j_d9E5NmkJhplCFc-32" value="Record Decision" style="edgeLabel;html=1;align=center;verticalAlign=middle;resizable=0;points=[];" vertex="1" connectable="0" parent="V150j_d9E5NmkJhplCFc-31">
          <mxGeometry x="-0.4894" y="-2" relative="1" as="geometry">
            <mxPoint x="21" y="-2" as="offset" />
          </mxGeometry>
        </mxCell>
      </root>
    </mxGraphModel>
  </diagram>
</mxfile>
